<svg width="60" height="60" viewBox="0 0 60 60" fill="none" xmlns="http://www.w3.org/2000/svg">
<g clip-path="url(#clip0_62_3)">
<path d="M59 30C59 46.0163 46.0163 59 30 59C13.9837 59 1 46.0163 1 30C1 13.9838 13.9837 1.00001 30 1.00001C46.0163 1.00001 59 13.9838 59 30Z" fill="white" stroke="black" stroke-width="2"/>
<path d="M30.2631 44V15.6H39.9031C42.9165 15.6 45.4231 16.24 47.4231 17.52C49.4498 18.7733 50.9698 20.48 51.9831 22.64C52.9965 24.7733 53.5031 27.1467 53.5031 29.76C53.5031 32.64 52.9431 35.1467 51.8231 37.28C50.7298 39.4133 49.1565 41.0667 47.1031 42.24C45.0765 43.4133 42.6765 44 39.9031 44H30.2631ZM50.7031 29.76C50.7031 27.4933 50.2765 25.48 49.4231 23.72C48.5965 21.96 47.3831 20.5867 45.7831 19.6C44.1831 18.5867 42.2231 18.08 39.9031 18.08H33.0631V41.52H39.9031C42.2498 41.52 44.2231 41 45.8231 39.96C47.4231 38.92 48.6365 37.52 49.4631 35.76C50.2898 33.9733 50.7031 31.9733 50.7031 29.76Z" fill="black"/>
<path d="M29.5064 16L29.5064 44.4H17.5064C16.2797 44.4 15.1597 44.1467 14.1464 43.64C13.1331 43.1333 12.2531 42.44 11.5064 41.56C10.7331 40.7067 10.1464 39.7467 9.74641 38.68C9.31974 37.64 9.1064 36.5733 9.1064 35.48C9.1064 34.12 9.37307 32.84 9.9064 31.64C10.4131 30.44 11.1464 29.4267 12.1064 28.6C13.0397 27.7733 14.1464 27.2267 15.4264 26.96L8.46641 16H11.6264L18.3064 26.48L26.7064 26.48L26.7064 16H29.5064ZM26.7064 28.96H17.4264C16.3064 28.96 15.3331 29.2667 14.5064 29.88C13.6797 30.4933 13.0397 31.2933 12.5864 32.28C12.1331 33.2933 11.9064 34.36 11.9064 35.48C11.9064 36.6267 12.1731 37.68 12.7064 38.64C13.2131 39.6267 13.9064 40.4133 14.7864 41C15.6397 41.6133 16.5997 41.92 17.6664 41.92H26.7064V28.96Z" fill="black"/>
<path d="M40.513 18.08H30.393V44H27.593V18.08H17.473V15.6H40.513V18.08Z" fill="black"/>
</g>
<defs>
<clipPath id="clip0_62_3">
<rect width="60" height="60" fill="white"/>
</clipPath>
</defs>
</svg>
